<svg width="18" height="18" viewBox="0 0 18 18" fill="none" xmlns="http://www.w3.org/2000/svg">
<path d="M17.1667 13.0126V15.4615C17.1677 15.6889 17.1211 15.9139 17.0301 16.1222C16.939 16.3305 16.8055 16.5175 16.638 16.6712C16.4705 16.8249 16.2728 16.9419 16.0575 17.0147C15.8421 17.0876 15.614 17.1146 15.3876 17.0942C12.8763 16.8212 10.4641 15.9629 8.34463 14.5881C6.37277 13.3348 4.70099 11.6626 3.44799 9.69026C2.06875 7.56068 1.21042 5.13608 0.942537 2.61288C0.922143 2.38714 0.948964 2.15963 1.02129 1.94483C1.09362 1.73003 1.20987 1.53265 1.36264 1.36525C1.51541 1.19786 1.70136 1.06411 1.90864 0.972529C2.11592 0.88095 2.33999 0.833545 2.56659 0.833331H5.01491C5.41097 0.829432 5.79494 0.969718 6.09524 1.22804C6.39555 1.48637 6.59169 1.8451 6.64713 2.23738C6.75046 3.02109 6.94211 3.79059 7.2184 4.5312C7.3282 4.82337 7.35197 5.14091 7.28688 5.44618C7.22179 5.75145 7.07057 6.03166 6.85115 6.25361L5.8147 7.29031C6.97647 9.33397 8.66818 11.0261 10.7113 12.1882L11.7478 11.1514C11.9697 10.932 12.2498 10.7807 12.555 10.7156C12.8602 10.6505 13.1777 10.6743 13.4698 10.7841C14.2102 11.0605 14.9795 11.2522 15.763 11.3555C16.1595 11.4115 16.5215 11.6112 16.7803 11.9167C17.0392 12.2223 17.1767 12.6123 17.1667 13.0126Z" stroke="#888888" stroke-width="1.5" stroke-linecap="round" stroke-linejoin="round"/>
</svg>
