<svg width="18" height="11" viewBox="0 0 18 11" fill="none" xmlns="http://www.w3.org/2000/svg">
<path d="M17.9045 9.93422C17.8827 9.8839 17.8624 9.84217 17.8435 9.80873C17.5313 9.20629 16.9345 8.46681 16.0535 7.59011L16.0349 7.57004L16.0255 7.5602L16.0162 7.55011H16.0067C15.6069 7.14187 15.3537 6.86738 15.2477 6.72685C15.0536 6.45915 15.0102 6.18818 15.1163 5.91362C15.1912 5.70618 15.4726 5.2681 15.9597 4.59877C16.216 4.24405 16.419 3.95976 16.5688 3.74556C17.6498 2.2063 18.1185 1.22268 17.9747 0.794338L17.9188 0.69424C17.8813 0.633978 17.7845 0.578848 17.6285 0.52857C17.4721 0.478398 17.2722 0.4701 17.0285 0.503537L14.3294 0.523507C14.2857 0.506912 14.2233 0.508459 14.1419 0.52857C14.0608 0.548682 14.0201 0.558772 14.0201 0.558772L13.9731 0.583911L13.9358 0.614113C13.9046 0.634083 13.8702 0.669207 13.8327 0.719414C13.7954 0.769446 13.7641 0.828162 13.7392 0.895069C13.4454 1.70483 13.1113 2.45769 12.7363 3.15363C12.5052 3.56861 12.2928 3.92825 12.0989 4.23277C11.9053 4.53717 11.7428 4.76145 11.6117 4.90522C11.4804 5.04913 11.3619 5.16442 11.2554 5.2515C11.1492 5.33863 11.0681 5.37544 11.012 5.36198C10.9556 5.34851 10.9026 5.33515 10.8524 5.32179C10.765 5.26153 10.6948 5.17957 10.6417 5.07585C10.5885 4.97213 10.5526 4.84158 10.5339 4.68432C10.5153 4.52694 10.5042 4.39158 10.5011 4.27777C10.4981 4.1641 10.4994 4.00332 10.5058 3.79587C10.5123 3.58833 10.5153 3.44791 10.5153 3.37429C10.5153 3.11994 10.5199 2.84391 10.5292 2.54611C10.5386 2.24831 10.5462 2.01236 10.5526 1.83853C10.559 1.66453 10.562 1.48043 10.562 1.28635C10.562 1.09228 10.551 0.940073 10.5292 0.829603C10.5077 0.719273 10.4746 0.612179 10.431 0.508353C10.3872 0.404634 10.323 0.324401 10.2389 0.267442C10.1546 0.210555 10.0498 0.165411 9.92495 0.131869C9.59378 0.0516005 9.17207 0.00817886 8.65964 0.0014283C7.4976 -0.0119322 6.75092 0.0684417 6.41978 0.242444C6.28858 0.315963 6.16985 0.416412 6.06369 0.543478C5.95121 0.690759 5.93551 0.771133 6.01673 0.784353C6.39165 0.84451 6.65707 0.988417 6.81329 1.21593L6.86959 1.33649C6.91337 1.42348 6.9571 1.57747 7.00085 1.79828C7.04455 2.01907 7.07274 2.26332 7.08515 2.53088C7.11633 3.01949 7.11633 3.43775 7.08515 3.78568C7.05386 4.13376 7.02432 4.40473 6.99613 4.59881C6.96793 4.79289 6.92579 4.95016 6.86959 5.07057C6.81329 5.19103 6.77584 5.26465 6.75706 5.29137C6.73832 5.3181 6.7227 5.33493 6.71028 5.34155C6.62908 5.37488 6.54462 5.39186 6.4572 5.39186C6.36966 5.39186 6.2635 5.34496 6.13857 5.25122C6.01367 5.15749 5.88404 5.02874 5.74969 4.86475C5.61534 4.70073 5.46382 4.47153 5.29506 4.17711C5.12644 3.88269 4.95148 3.53471 4.77028 3.1332L4.62037 2.84201C4.52666 2.65468 4.39864 2.38192 4.23619 2.02397C4.07363 1.66587 3.92996 1.31947 3.80506 0.984866C3.75514 0.844334 3.68013 0.737345 3.58018 0.663721L3.53327 0.63352C3.50209 0.606799 3.45203 0.578426 3.38336 0.548189C3.31459 0.517987 3.24284 0.496329 3.16779 0.483004L0.599913 0.502974C0.337508 0.502974 0.159464 0.566648 0.0657164 0.693819L0.0281972 0.753976C0.00945358 0.787483 0 0.840995 0 0.914653C0 0.988276 0.0187436 1.07864 0.0562628 1.18563C0.431125 2.1293 0.838779 3.0394 1.27923 3.91606C1.71968 4.79271 2.10242 5.49888 2.42722 6.03394C2.75209 6.56938 3.08323 7.07472 3.42064 7.54972C3.75806 8.02489 3.9814 8.32941 4.09068 8.46319C4.20008 8.59722 4.28601 8.69742 4.34848 8.76433L4.58282 9.00521C4.73276 9.16585 4.95296 9.35824 5.24349 9.58238C5.53409 9.80666 5.85582 10.0275 6.20881 10.2451C6.56188 10.4625 6.97263 10.6398 7.44127 10.7769C7.90985 10.9142 8.36592 10.9693 8.80955 10.9428H9.88734C10.1059 10.9226 10.2715 10.8489 10.384 10.7219L10.4214 10.6715C10.4465 10.6316 10.4699 10.5696 10.4916 10.486C10.5135 10.4024 10.5244 10.3102 10.5244 10.21C10.518 9.9223 10.5384 9.66299 10.5852 9.43215C10.6319 9.20136 10.6852 9.02735 10.7447 8.91017C10.8042 8.79309 10.8714 8.69429 10.9462 8.6142C11.021 8.53393 11.0744 8.4853 11.1057 8.46857C11.1368 8.45173 11.1616 8.4403 11.1805 8.43345C11.3303 8.37994 11.5068 8.43176 11.7101 8.58916C11.9132 8.74643 12.1037 8.94061 12.2819 9.1714C12.4599 9.4024 12.6738 9.66156 12.9237 9.94926C13.1737 10.2371 13.3924 10.451 13.5797 10.5918L13.7671 10.7122C13.8923 10.7926 14.0547 10.8662 14.2547 10.9331C14.4543 11 14.6292 11.0167 14.7793 10.9833L17.1785 10.9432C17.4158 10.9432 17.6004 10.9011 17.7313 10.8176C17.8626 10.734 17.9405 10.6418 17.9656 10.5416C17.9907 10.4412 17.9921 10.3274 17.9705 10.2001C17.9482 10.0732 17.9263 9.98439 17.9045 9.93422Z" fill="white"/>
</svg>
