<svg width="18" height="18" viewBox="0 0 18 18" fill="none" xmlns="http://www.w3.org/2000/svg">
<path fill-rule="evenodd" clip-rule="evenodd" d="M1.61632 0.0458554C0.855001 0.254774 0.245217 0.871048 0.052469 1.62628C-0.0159879 1.8945 -0.016234 2.41465 0.0520119 2.68424C0.209565 3.30695 0.720478 3.91876 1.28427 4.15997C1.61875 4.30304 1.775 4.33382 2.16131 4.33262C2.4897 4.33164 2.59054 4.31686 2.82935 4.23474C3.536 3.99174 4.05929 3.4361 4.25492 2.7211C4.36103 2.33323 4.34194 1.81143 4.20788 1.43506C3.98981 0.822898 3.4796 0.311505 2.87235 0.0963968C2.58358 -0.00591695 1.90446 -0.0332452 1.61632 0.0458554ZM12.9765 5.69158C12.6388 5.73406 12.1233 5.87218 11.8001 6.00675C11.1849 6.26294 10.4821 6.83317 10.1603 7.33732C10.0732 7.47361 9.99018 7.58605 9.97566 7.58718C9.96114 7.58834 9.94929 7.22523 9.94929 6.78031V5.97136H8.15612H6.36295V11.9857V18H8.24402H10.1251V14.672C10.1251 11.8253 10.1331 11.29 10.1805 10.9702C10.3819 9.60999 11.0552 8.98813 12.3222 8.99182C13.4411 8.99509 13.9829 9.51137 14.1908 10.7723C14.241 11.0768 14.2509 11.5851 14.2647 14.562L14.2806 18H16.1408H18.001L18.0007 14.2454C18.0004 10.4279 17.9899 10.0554 17.8613 9.2599C17.5173 7.1341 16.4367 5.99813 14.5001 5.72678C14.1074 5.67174 13.2851 5.65275 12.9765 5.69158ZM0.280237 11.9857V18H2.16131H4.04238V11.9857V5.97136H2.16131H0.280237V11.9857Z" fill="white"/>
</svg>
