<svg width="9" height="16" viewBox="0 0 9 16" fill="none" xmlns="http://www.w3.org/2000/svg">
<path fill-rule="evenodd" clip-rule="evenodd" d="M5.86455 0.0321236C5.03343 0.140509 4.31578 0.445883 3.77705 0.920398C3.28145 1.35694 3.00477 1.77933 2.79724 2.41633C2.63285 2.92084 2.60156 3.28669 2.60156 4.70361V5.99902H1.30078H0V7.42104V8.84305H1.30078H2.60156V12.4215V16H4.21875H5.83594V12.4215V8.84305H7.08398C7.77041 8.84305 8.33326 8.83952 8.33477 8.83524C8.33629 8.83095 8.42822 8.19102 8.53907 7.41322L8.74065 5.99902H7.28828H5.83594L5.83654 4.8661C5.83731 3.46987 5.86508 3.30998 6.15846 3.01295C6.21911 2.95153 6.3335 2.87184 6.41268 2.83587C6.71776 2.6972 6.86268 2.68101 7.9541 2.66373L9 2.64716V1.37332V0.099474L8.78027 0.0798783C7.87036 -0.00122341 6.31554 -0.0266946 5.86455 0.0321236Z" fill="white"/>
</svg>
