<svg width="18" height="11" viewBox="0 0 18 11" fill="none" xmlns="http://www.w3.org/2000/svg">
<path d="M17.6572 9.66713C17.636 9.61817 17.6162 9.57756 17.5979 9.54502C17.2943 8.95877 16.7141 8.23918 15.8576 7.38605L15.8395 7.36652L15.8304 7.35694L15.8213 7.34712H15.8121C15.4234 6.94986 15.1772 6.68275 15.0742 6.546C14.8855 6.28549 14.8433 6.02181 14.9464 5.75463C15.0192 5.55277 15.2928 5.12646 15.7664 4.47513C16.0156 4.12995 16.2129 3.8533 16.3586 3.64486C17.4095 2.14698 17.8652 1.18981 17.7254 0.772982L17.6711 0.675575C17.6346 0.616933 17.5405 0.563285 17.3888 0.514359C17.2368 0.465536 17.0424 0.457461 16.8055 0.489999L14.1814 0.509432C14.1389 0.493283 14.0782 0.494789 13.9991 0.514359C13.9202 0.53393 13.8807 0.543749 13.8807 0.543749L13.835 0.568212L13.7987 0.597602C13.7684 0.617035 13.7349 0.651215 13.6985 0.700072C13.6622 0.748759 13.6318 0.805896 13.6076 0.871005C13.3219 1.65899 12.9971 2.39161 12.6325 3.06884C12.4078 3.47267 12.2013 3.82264 12.0128 4.11897C11.8246 4.41519 11.6666 4.63344 11.5392 4.77334C11.4115 4.91338 11.2963 5.02557 11.1928 5.11031C11.0895 5.1951 11.0107 5.23092 10.9561 5.21782C10.9013 5.20471 10.8498 5.19171 10.801 5.17871C10.716 5.12007 10.6477 5.04031 10.5961 4.93938C10.5444 4.83845 10.5095 4.71141 10.4913 4.55838C10.4732 4.40523 10.4624 4.27351 10.4594 4.16276C10.4565 4.05215 10.4578 3.89569 10.464 3.69382C10.4703 3.49186 10.4732 3.35521 10.4732 3.28357C10.4732 3.03606 10.4777 2.76745 10.4867 2.47766C10.4959 2.18786 10.5033 1.95826 10.5095 1.7891C10.5157 1.61978 10.5186 1.44063 10.5186 1.25177C10.5186 1.06291 10.5079 0.914799 10.4867 0.807299C10.4658 0.699935 10.4336 0.59572 10.3913 0.494686C10.3487 0.393755 10.2863 0.315679 10.2045 0.260252C10.1225 0.204894 10.0206 0.160964 9.89927 0.128324C9.57729 0.0502132 9.1673 0.00795897 8.6691 0.0013899C7.53934 -0.0116114 6.8134 0.0666016 6.49146 0.235926C6.3639 0.307468 6.24847 0.405217 6.14526 0.528866C6.0359 0.672188 6.02064 0.750401 6.0996 0.763265C6.46411 0.821805 6.72216 0.961843 6.87404 1.18324L6.92877 1.30056C6.97134 1.38521 7.01385 1.53506 7.05639 1.74993C7.09887 1.96479 7.12628 2.20247 7.13835 2.46284C7.16866 2.93831 7.16866 3.34532 7.13835 3.6839C7.10793 4.02262 7.07921 4.28631 7.0518 4.47517C7.02438 4.66403 6.98341 4.81707 6.92877 4.93425C6.87404 5.05147 6.83763 5.12311 6.81937 5.14911C6.80115 5.17512 6.78596 5.1915 6.77389 5.19794C6.69494 5.23037 6.61283 5.2469 6.52784 5.2469C6.44273 5.2469 6.33952 5.20126 6.21806 5.11004C6.09663 5.01883 5.9706 4.89354 5.83998 4.73396C5.70936 4.57435 5.56205 4.35131 5.39798 4.06481C5.23404 3.7783 5.06394 3.43968 4.88778 3.04896L4.74203 2.7656C4.65092 2.58331 4.52646 2.31788 4.36852 1.96955C4.21048 1.62108 4.0708 1.284 3.94937 0.958387C3.90083 0.821634 3.82791 0.717521 3.73073 0.645877L3.68513 0.616488C3.65481 0.590485 3.60614 0.562875 3.53938 0.533451C3.47252 0.504061 3.40276 0.482985 3.3298 0.470018L0.833249 0.489451C0.578133 0.489451 0.405035 0.551413 0.313891 0.675165L0.277414 0.733705C0.259191 0.766311 0.25 0.818384 0.25 0.890062C0.25 0.961706 0.268223 1.04964 0.3047 1.15375C0.66915 2.07205 1.06548 2.95768 1.4937 3.81077C1.92191 4.66386 2.29402 5.35104 2.6098 5.87171C2.92565 6.39276 3.24759 6.88451 3.57563 7.34674C3.90367 7.80914 4.12081 8.10547 4.22705 8.23565C4.33341 8.36608 4.41696 8.46359 4.47769 8.5287L4.70552 8.7631C4.8513 8.91942 5.06538 9.10664 5.34784 9.32475C5.63037 9.543 5.94316 9.75787 6.28635 9.96968C6.62961 10.1812 7.02895 10.3537 7.48457 10.4872C7.94014 10.6208 8.38354 10.6744 8.81485 10.6486H9.8627C10.0752 10.6289 10.2362 10.5572 10.3456 10.4336L10.3819 10.3846C10.4063 10.3458 10.4291 10.2854 10.4502 10.2041C10.4715 10.1227 10.4821 10.033 10.4821 9.9355C10.4758 9.65553 10.4957 9.4032 10.5412 9.17856C10.5866 8.95398 10.6384 8.78465 10.6962 8.67062C10.7541 8.55668 10.8194 8.46054 10.8921 8.3826C10.9649 8.30449 11.0168 8.25717 11.0472 8.24089C11.0775 8.2245 11.1016 8.21338 11.1199 8.20671C11.2656 8.15464 11.4372 8.20507 11.6348 8.35824C11.8323 8.51128 12.0175 8.70024 12.1907 8.92482C12.3638 9.14961 12.5718 9.4018 12.8147 9.68177C13.0578 9.96185 13.2704 10.17 13.4525 10.307L13.6347 10.4242C13.7564 10.5024 13.9143 10.5741 14.1087 10.6392C14.3028 10.7043 14.4728 10.7205 14.6188 10.688L16.9513 10.649C17.182 10.649 17.3615 10.608 17.4888 10.5268C17.6164 10.4454 17.6922 10.3557 17.7166 10.2582C17.741 10.1605 17.7423 10.0497 17.7213 9.92589C17.6997 9.80234 17.6784 9.71595 17.6572 9.66713Z" fill="white"/>
</svg>
