<svg width="17" height="14" viewBox="0 0 17 14" fill="none" xmlns="http://www.w3.org/2000/svg">
<path fill-rule="evenodd" clip-rule="evenodd" d="M16.4669 2.28496C15.8772 2.5476 15.2467 2.72269 14.5871 2.79856C15.2643 2.39585 15.7838 1.75385 16.029 0.989293C15.3927 1.36282 14.6921 1.63713 13.9449 1.78304C13.3494 1.14687 12.4971 0.75 11.5571 0.75C9.74736 0.75 8.28203 2.21493 8.28203 4.0242C8.28203 4.281 8.31122 4.53197 8.3696 4.77126C5.64326 4.63119 3.23218 3.32967 1.61505 1.35114C1.33483 1.83557 1.17137 2.39585 1.17137 2.997C1.17137 4.13509 1.74933 5.13311 2.63086 5.72258C2.09377 5.70507 1.5917 5.55917 1.14802 5.31404C1.14802 5.32571 1.14802 5.34322 1.14802 5.3549C1.14802 6.94238 2.27475 8.2614 3.77511 8.56489C3.50072 8.64077 3.20882 8.68162 2.91109 8.68162C2.70092 8.68162 2.49659 8.65828 2.29226 8.62326C2.70676 9.92477 3.92106 10.8703 5.35136 10.8994C4.23047 11.7749 2.81768 12.3002 1.28229 12.3002C1.01958 12.3002 0.756871 12.2827 0.5 12.2535C1.94782 13.1815 3.67002 13.7242 5.52066 13.7242C11.5455 13.7242 14.8381 8.73415 14.8381 4.4094C14.8381 4.26933 14.8322 4.12342 14.8264 3.98335C15.4744 3.51644 16.029 2.93864 16.4669 2.28496Z" fill="white"/>
</svg>
