<svg width="194" height="48" viewBox="0 0 194 48" fill="none" xmlns="http://www.w3.org/2000/svg">
<path d="M79.0389 37.5929C76.9909 37.5929 75.006 37.3021 73.0844 36.7206C71.1881 36.139 69.6837 35.3678 68.5712 34.407L70.2779 30.5765C71.3651 31.4361 72.6925 32.1441 74.2601 32.7003C75.8531 33.2313 77.446 33.4968 79.0389 33.4968C81.0111 33.4968 82.4776 33.1807 83.4384 32.5486C84.4245 31.9165 84.9175 31.0821 84.9175 30.0455C84.9175 29.287 84.6394 28.6675 84.0831 28.1871C83.5521 27.6814 82.8695 27.2895 82.0351 27.0114C81.2007 26.7332 80.0629 26.4172 78.6217 26.0632C76.5989 25.5828 74.9555 25.1024 73.6912 24.622C72.4523 24.1416 71.3777 23.3957 70.4675 22.3843C69.5825 21.3477 69.1401 19.957 69.1401 18.2124C69.1401 16.7459 69.532 15.4185 70.3158 14.2301C71.1249 13.0165 72.3259 12.0557 73.9188 11.3477C75.537 10.6397 77.5092 10.2858 79.8353 10.2858C81.4535 10.2858 83.0465 10.488 84.6141 10.8926C86.1817 11.2971 87.5344 11.8787 88.6722 12.6372L87.1172 16.4678C85.9542 15.7851 84.7405 15.2668 83.4763 14.9128C82.2121 14.5588 80.9858 14.3818 79.7974 14.3818C77.8505 14.3818 76.3967 14.7105 75.4359 15.3679C74.5003 16.0253 74.0326 16.8976 74.0326 17.9849C74.0326 18.7434 74.2981 19.3628 74.829 19.8433C75.3853 20.3237 76.0806 20.7029 76.915 20.981C77.7494 21.2592 78.8872 21.5752 80.3284 21.9292C82.3006 22.3843 83.9188 22.8647 85.183 23.3704C86.4472 23.8508 87.5218 24.5967 88.4067 25.6081C89.317 26.6195 89.7721 27.9848 89.7721 29.7042C89.7721 31.1706 89.3675 32.4981 88.5584 33.6864C87.7746 34.8748 86.5736 35.823 84.9554 36.5309C83.3372 37.2389 81.3651 37.5929 79.0389 37.5929Z" fill="white"/>
<path d="M105.432 16.7333C107.404 16.7333 109.162 17.1631 110.704 18.0228C112.272 18.8824 113.498 20.0961 114.383 21.6637C115.268 23.2314 115.71 25.0392 115.71 27.0872C115.71 29.1353 115.268 30.9557 114.383 32.5486C113.498 34.1163 112.272 35.3299 110.704 36.1896C109.162 37.0493 107.404 37.4791 105.432 37.4791C102.701 37.4791 100.54 36.5689 98.9468 34.7484V44.5714H94.2059V16.9608H98.7192V19.6157C99.503 18.6549 100.464 17.9343 101.602 17.4539C102.765 16.9735 104.042 16.7333 105.432 16.7333ZM104.901 33.4209C106.646 33.4209 108.074 32.8394 109.187 31.6763C110.325 30.5133 110.894 28.9835 110.894 27.0872C110.894 25.1909 110.325 23.6612 109.187 22.4981C108.074 21.335 106.646 20.7535 104.901 20.7535C103.763 20.7535 102.739 21.019 101.829 21.5499C100.919 22.0556 100.198 22.7889 99.6674 23.7497C99.1364 24.7105 98.8709 25.823 98.8709 27.0872C98.8709 28.3514 99.1364 29.4639 99.6674 30.4248C100.198 31.3856 100.919 32.1314 101.829 32.6624C102.739 33.1681 103.763 33.4209 104.901 33.4209Z" fill="white"/>
<path d="M127.684 16.7333C130.668 16.7333 132.943 17.4539 134.511 18.8951C136.104 20.311 136.9 22.4602 136.9 25.3426V37.2136H132.425V34.7484C131.843 35.6333 131.009 36.316 129.922 36.7964C128.86 37.2515 127.57 37.4791 126.053 37.4791C124.536 37.4791 123.209 37.2262 122.071 36.7206C120.933 36.1896 120.048 35.469 119.416 34.5587C118.809 33.6232 118.506 32.5739 118.506 31.4108C118.506 29.5904 119.176 28.1365 120.516 27.0493C121.881 25.9368 124.018 25.3805 126.926 25.3805H132.159V25.0771C132.159 23.6612 131.73 22.574 130.87 21.8154C130.036 21.0569 128.784 20.6776 127.115 20.6776C125.977 20.6776 124.852 20.8546 123.74 21.2086C122.653 21.5626 121.73 22.0556 120.971 22.6877L119.113 19.2364C120.175 18.4273 121.452 17.8079 122.943 17.378C124.435 16.9482 126.015 16.7333 127.684 16.7333ZM127.039 34.0278C128.228 34.0278 129.277 33.7623 130.187 33.2313C131.123 32.6751 131.78 31.8912 132.159 30.8799V28.5284H127.267C124.536 28.5284 123.171 29.426 123.171 31.2212C123.171 32.0809 123.512 32.7636 124.195 33.2692C124.878 33.7749 125.826 34.0278 127.039 34.0278Z" fill="white"/>
<path d="M152.462 37.4791C150.363 37.4791 148.479 37.0366 146.811 36.1517C145.142 35.2667 143.84 34.0404 142.904 32.4728C141.969 30.8799 141.501 29.0847 141.501 27.0872C141.501 25.0898 141.969 23.3072 142.904 21.7396C143.84 20.172 145.129 18.9457 146.773 18.0607C148.441 17.1758 150.338 16.7333 152.462 16.7333C154.459 16.7333 156.204 17.1378 157.696 17.9469C159.213 18.756 160.35 19.9191 161.109 21.4362L157.468 23.5601C156.886 22.6245 156.153 21.9292 155.268 21.4741C154.409 20.9937 153.46 20.7535 152.424 20.7535C150.654 20.7535 149.187 21.335 148.024 22.4981C146.861 23.6359 146.28 25.1656 146.28 27.0872C146.28 29.0088 146.849 30.5512 147.986 31.7143C149.149 32.8521 150.629 33.4209 152.424 33.4209C153.46 33.4209 154.409 33.1934 155.268 32.7383C156.153 32.2579 156.886 31.5499 157.468 30.6144L161.109 32.7383C160.325 34.2553 159.175 35.4311 157.658 36.2654C156.166 37.0745 154.434 37.4791 152.462 37.4791Z" fill="white"/>
<path d="M183.95 27.201C183.95 27.5297 183.925 27.9975 183.874 28.6043H167.983C168.261 30.0961 168.982 31.2844 170.145 32.1694C171.333 33.029 172.799 33.4589 174.544 33.4589C176.769 33.4589 178.602 32.7256 180.043 31.2591L182.585 34.1795C181.674 35.2667 180.524 36.0885 179.133 36.6447C177.743 37.201 176.175 37.4791 174.43 37.4791C172.205 37.4791 170.246 37.0366 168.552 36.1517C166.858 35.2667 165.543 34.0404 164.607 32.4728C163.697 30.8799 163.242 29.0847 163.242 27.0872C163.242 25.115 163.684 23.3451 164.569 21.7775C165.48 20.1846 166.731 18.9457 168.324 18.0607C169.917 17.1758 171.712 16.7333 173.71 16.7333C175.682 16.7333 177.439 17.1758 178.982 18.0607C180.549 18.9204 181.763 20.1467 182.622 21.7396C183.507 23.3072 183.95 25.1277 183.95 27.201ZM173.71 20.5259C172.193 20.5259 170.903 20.981 169.841 21.8913C168.805 22.7762 168.172 23.9646 167.945 25.4564H179.437C179.234 23.9899 178.615 22.8015 177.578 21.8913C176.542 20.981 175.252 20.5259 173.71 20.5259Z" fill="white"/>
<path d="M190.021 37.4791C189.161 37.4791 188.428 37.1883 187.821 36.6068C187.214 36 186.911 35.2414 186.911 34.3312C186.911 33.3957 187.202 32.6371 187.783 32.0556C188.39 31.4741 189.136 31.1833 190.021 31.1833C190.906 31.1833 191.639 31.4741 192.221 32.0556C192.827 32.6371 193.131 33.3957 193.131 34.3312C193.131 35.2414 192.827 36 192.221 36.6068C191.614 37.1883 190.88 37.4791 190.021 37.4791Z" fill="white"/>
<circle cx="11.0769" cy="11.077" r="11.0769" fill="white"/>
<circle cx="36.9231" cy="11.0769" r="11.0769" fill="white"/>
<circle cx="11.0769" cy="36.9231" r="11.0769" fill="white"/>
<circle cx="36.9231" cy="36.9231" r="11.0769" fill="white"/>
</svg>
