<svg width="18" height="13" viewBox="0 0 18 13" fill="none" xmlns="http://www.w3.org/2000/svg">
<path d="M17.3894 2.58391C17.1878 1.8668 16.5967 1.3015 15.8471 1.1084C14.4776 0.75 8.9998 0.75 8.9998 0.75C8.9998 0.75 3.52218 0.75 2.15274 1.09482C1.41756 1.28771 0.812043 1.8669 0.610383 2.58391C0.25 3.8937 0.25 6.61004 0.25 6.61004C0.25 6.61004 0.25 9.34006 0.610383 10.6362C0.812257 11.3532 1.40314 11.9185 2.15285 12.1116C3.5366 12.4701 9.00002 12.4701 9.00002 12.4701C9.00002 12.4701 14.4776 12.4701 15.8471 12.1253C16.5968 11.9323 17.1878 11.367 17.3897 10.65C17.7499 9.34006 17.7499 6.62383 17.7499 6.62383C17.7499 6.62383 17.7643 3.8937 17.3894 2.58391ZM7.25578 9.11948V4.10059L11.8109 6.61004L7.25578 9.11948Z" fill="white"/>
</svg>
