<svg width="17" height="17" viewBox="0 0 17 17" fill="none" xmlns="http://www.w3.org/2000/svg">
<path fill-rule="evenodd" clip-rule="evenodd" d="M1.52561 0.0433079C0.806578 0.24062 0.230672 0.822656 0.0486318 1.53594C-0.016022 1.78925 -0.0162544 2.28051 0.0482001 2.53512C0.197 3.12323 0.679529 3.70105 1.212 3.92886C1.5279 4.06398 1.67547 4.09305 2.04031 4.09192C2.35046 4.09099 2.4457 4.07704 2.67124 3.99948C3.33863 3.76998 3.83285 3.24521 4.01761 2.56993C4.11783 2.20361 4.0998 1.71079 3.97318 1.35533C3.76724 0.777182 3.28537 0.2942 2.71185 0.0910414C2.43913 -0.00558823 1.79774 -0.0313982 1.52561 0.0433079ZM12.2547 5.37538C11.9357 5.4155 11.4488 5.54595 11.1436 5.67304C10.5626 5.915 9.89888 6.45355 9.59487 6.92969C9.51268 7.05841 9.43425 7.1646 9.42054 7.16567C9.40682 7.16676 9.39563 6.82383 9.39563 6.40362V5.63962H7.70208H6.00853V11.3198V17H7.7851H9.56166V13.8569C9.56166 11.1683 9.56924 10.6628 9.61397 10.3608C9.80424 9.0761 10.4401 8.48879 11.6367 8.49227C12.6934 8.49536 13.2052 8.98296 13.4015 10.1738C13.4489 10.4614 13.4583 10.9415 13.4713 13.753L13.4863 17H15.2432H17L16.9997 13.454C16.9994 9.84861 16.9896 9.4968 16.868 8.74546C16.5432 6.73776 15.5226 5.6649 13.6936 5.40863C13.3227 5.35664 12.5461 5.33871 12.2547 5.37538ZM0.263746 11.3198V17H2.04031H3.81688V11.3198V5.63962H2.04031H0.263746V11.3198Z" fill="white"/>
</svg>
