<svg width="10" height="16" viewBox="0 0 10 16" fill="none" xmlns="http://www.w3.org/2000/svg">
<path fill-rule="evenodd" clip-rule="evenodd" d="M6.51617 0.0321236C5.5927 0.140509 4.79531 0.445883 4.19672 0.920398C3.64605 1.35694 3.33863 1.77933 3.10805 2.41633C2.92539 2.92084 2.89062 3.28669 2.89062 4.70361V5.99902H1.44531H0V7.42104V8.84305H1.44531H2.89062V12.4215V16H4.6875H6.48438V12.4215V8.84305H7.87109C8.63379 8.84305 9.25918 8.83952 9.26086 8.83524C9.26254 8.83095 9.36469 8.19102 9.48785 7.41322L9.71184 5.99902H8.09809H6.48438L6.48504 4.8661C6.4859 3.46987 6.51676 3.30998 6.84273 3.01295C6.91012 2.95153 7.03723 2.87184 7.1252 2.83587C7.46418 2.6972 7.6252 2.68101 8.83789 2.66373L10 2.64716V1.37332V0.099474L9.75586 0.0798783C8.74484 -0.00122341 7.01727 -0.0266946 6.51617 0.0321236Z" fill="white"/>
</svg>
